<?xml version="1.0" encoding="UTF-8" standalone="no"?>
<!-- Created with Inkscape (http://www.inkscape.org/) -->

<svg
   xmlns:dc="http://purl.org/dc/elements/1.1/"
   xmlns:cc="http://creativecommons.org/ns#"
   xmlns:rdf="http://www.w3.org/1999/02/22-rdf-syntax-ns#"
   xmlns:svg="http://www.w3.org/2000/svg"
   xmlns="http://www.w3.org/2000/svg"
   xmlns:sodipodi="http://sodipodi.sourceforge.net/DTD/sodipodi-0.dtd"
   xmlns:inkscape="http://www.inkscape.org/namespaces/inkscape"
   version="1.1"
   id="svg3699"
   xml:space="preserve"
   width="755.90668"
   height="755.90533"
   viewBox="0 0 755.90668 755.90533"
   sodipodi:docname="logo_scaled.svg"
   inkscape:version="0.92.2 (5c3e80d, 2017-08-06)"><metadata
     id="metadata3705"><rdf:RDF><cc:Work
         rdf:about=""><dc:format>image/svg+xml</dc:format><dc:type
           rdf:resource="http://purl.org/dc/dcmitype/StillImage" /><dc:title></dc:title></cc:Work></rdf:RDF></metadata><defs
     id="defs3703"><clipPath
       clipPathUnits="userSpaceOnUse"
       id="clipPath3717"><path
         d="M 0,566.929 H 566.93 V 0 H 0 Z"
         id="path3715"
         inkscape:connector-curvature="0" /></clipPath></defs><sodipodi:namedview
     pagecolor="#ffffff"
     bordercolor="#666666"
     borderopacity="1"
     objecttolerance="10"
     gridtolerance="10"
     guidetolerance="10"
     inkscape:pageopacity="0"
     inkscape:pageshadow="2"
     inkscape:window-width="1920"
     inkscape:window-height="1027"
     id="namedview3701"
     showgrid="false"
     inkscape:zoom="1.6052212"
     inkscape:cx="262.52508"
     inkscape:cy="428.98423"
     inkscape:window-x="-8"
     inkscape:window-y="-8"
     inkscape:window-maximized="1"
     inkscape:current-layer="g3707" /><g
     id="g3707"
     inkscape:groupmode="layer"
     inkscape:label="logo"
     transform="matrix(1.3333333,0,0,-1.3333333,0,755.90532)"
     style="display:inline"><g
       id="g3711"
       transform="matrix(6.7248249,0,0,6.7248249,-1622.7869,-1533.3007)"><g
         id="g3713"
         clip-path="url(#clipPath3717)"><g
           id="g3719"
           transform="translate(306.6836,276.8584)"><path
             d="m 0,0 c 0,-0.88 -0.361,-2.159 -3.49,-3.104 -1.328,-0.401 -2.351,-1.81 -3.647,-3.594 -1.159,-1.595 -2.471,-3.404 -4.258,-4.839 -2.563,-2.062 -6.704,-4.52 -11.867,-4.52 -4.11,0 -7.679,1.328 -11.231,4.178 -2.06,1.652 -3.613,3.67 -4.862,5.291 -1.319,1.713 -2.361,3.065 -3.563,3.475 -2.5,0.852 -3.52,1.755 -3.52,3.113 l 0.003,0.106 -0.003,0.107 c 0,1.358 1.02,2.261 3.52,3.113 1.202,0.41 2.244,1.762 3.563,3.474 1.249,1.622 2.802,3.639 4.862,5.292 3.553,2.85 7.121,4.178 11.231,4.178 5.163,0 9.304,-2.458 11.867,-4.52 1.787,-1.437 3.099,-3.245 4.258,-4.84 C -5.841,5.126 -4.818,3.718 -3.49,3.316 -0.361,2.372 0,1.093 0,0.213 L -0.003,0.106 Z m 1.705,0.106 v 0.002 c 0.002,0.035 0.002,0.07 0.002,0.105 0,2.201 -1.583,3.796 -4.703,4.738 -0.778,0.235 -1.74,1.559 -2.759,2.963 -1.161,1.598 -2.606,3.587 -4.57,5.166 -2.779,2.234 -7.277,4.897 -12.937,4.897 -4.457,0 -8.48,-1.49 -12.3,-4.554 -2.218,-1.779 -3.841,-3.887 -5.146,-5.581 -1.053,-1.366 -2.046,-2.656 -2.762,-2.9 -2.176,-0.743 -4.675,-1.952 -4.675,-4.729 0,-0.035 0.001,-0.07 0.002,-0.105 V 0.106 0.103 C -48.144,0.068 -48.145,0.035 -48.145,0 c 0,-2.778 2.499,-3.986 4.675,-4.729 0.716,-0.244 1.709,-1.535 2.762,-2.901 1.305,-1.693 2.928,-3.801 5.146,-5.58 3.819,-3.064 7.842,-4.554 12.3,-4.554 5.66,0 10.158,2.662 12.937,4.896 1.964,1.579 3.409,3.568 4.57,5.167 1.019,1.403 1.981,2.728 2.759,2.963 3.12,0.942 4.703,2.537 4.703,4.738 0,0.035 0,0.068 -0.002,0.103 z"
             style="fill:#67bf0d;fill-opacity:1;fill-rule:nonzero;stroke:none"
             id="path3721"
             inkscape:connector-curvature="0" /></g><g
           id="g3723"
           transform="translate(285.7598,284.3286)"><path
             d="m 0,0 c 1.098,-1.12 1.635,-2.174 2.325,-3.81 0.518,-1.226 0.976,-1.357 1.5,-0.133 0,0 0.661,1.436 0.768,3.648 C 4.666,1.216 4.48,1.812 4.246,2.458 3.776,3.742 2.717,4.782 1.533,5.374 0.365,5.958 -0.868,6.172 -2.162,6.172 -4.826,6.172 -7.319,5.007 -7.319,5.007 -8.524,4.443 -8.356,3.905 -7.635,3.735 -7.297,3.655 -7.103,3.65 -6.163,3.406 -3.496,2.711 -1.898,1.937 0,0"
             style="fill:#cbdb2e;fill-opacity:1;fill-rule:nonzero;stroke:none"
             id="path3725"
             inkscape:connector-curvature="0" /></g><g
           id="g3727"
           transform="translate(290.7617,276.5742)"><path
             d="m 0,0 c -0.878,-1.3 -1.803,-2.036 -3.268,-3.039 -1.098,-0.751 -1.134,-1.226 0.169,-1.496 0,0 1.538,-0.361 3.727,-0.024 1.496,0.231 2.043,0.53 2.628,0.889 1.165,0.716 1.972,1.963 2.315,3.24 C 5.91,0.832 5.876,2.083 5.617,3.351 5.086,5.96 3.446,8.171 3.446,8.171 2.652,9.239 2.158,8.967 2.137,8.226 2.126,7.88 2.16,7.688 2.108,6.719 1.959,3.967 1.52,2.247 0,0"
             style="fill:#cbdb2e;fill-opacity:1;fill-rule:nonzero;stroke:none"
             id="path3729"
             inkscape:connector-curvature="0" /></g><g
           id="g3731"
           transform="translate(285.5947,269.6768)"><path
             d="M 0,0 C -1.514,0.412 -2.51,1.05 -3.932,2.113 -4.997,2.909 -5.459,2.79 -5.293,1.47 c 0,0 0.155,-1.574 1.181,-3.535 0.702,-1.342 1.161,-1.763 1.69,-2.201 1.054,-0.871 2.495,-1.232 3.814,-1.145 1.304,0.086 2.478,0.524 3.593,1.178 2.299,1.345 3.86,3.611 3.86,3.611 C 9.601,0.475 9.185,0.854 8.476,0.636 8.145,0.534 7.974,0.439 7.039,0.176 4.387,-0.572 2.618,-0.711 0,0"
             style="fill:#cbdb2e;fill-opacity:1;fill-rule:nonzero;stroke:none"
             id="path3733"
             inkscape:connector-curvature="0" /></g><g
           id="g3735"
           transform="translate(277.2197,272.0674)"><path
             d="m 0,0 c -0.126,1.564 0.136,2.718 0.654,4.415 0.388,1.273 0.119,1.667 -1.066,1.064 0,0 -1.428,-0.68 -2.926,-2.31 -1.023,-1.115 -1.264,-1.69 -1.496,-2.337 -0.463,-1.286 -0.314,-2.765 0.215,-3.976 0.523,-1.198 1.333,-2.152 2.326,-2.981 2.046,-1.705 4.707,-2.406 4.707,-2.406 1.287,-0.34 1.503,0.181 1.058,0.774 C 3.263,-7.48 3.117,-7.352 2.552,-6.562 0.948,-4.321 0.218,-2.702 0,0"
             style="fill:#cbdb2e;fill-opacity:1;fill-rule:nonzero;stroke:none"
             id="path3737"
             inkscape:connector-curvature="0" /></g><g
           id="g3739"
           transform="translate(277.1416,281.291)"><path
             d="m 0,0 c 1.428,0.65 2.601,0.796 4.374,0.887 1.329,0.067 1.608,0.454 0.637,1.364 0,0 -1.125,1.111 -3.168,1.965 C 0.447,4.8 -0.176,4.831 -0.862,4.829 -2.23,4.826 -3.569,4.184 -4.528,3.274 -5.477,2.375 -6.099,1.289 -6.54,0.073 c -0.908,-2.504 -0.663,-5.245 -0.663,-5.245 0.119,-1.326 0.682,-1.351 1.088,-0.731 0.19,0.29 0.261,0.472 0.811,1.271 C -3.741,-2.362 -2.468,-1.125 0,0"
             style="fill:#cbdb2e;fill-opacity:1;fill-rule:nonzero;stroke:none"
             id="path3741"
             inkscape:connector-curvature="0" /></g><g
           id="g3743"
           transform="translate(242.9844,240.9648)"><path
             d="M 0,0 V 8.863 H 1.104 V 1.079 H 5.9 V 0 Z"
             style="fill:#67bf0d;fill-opacity:1;fill-rule:nonzero;stroke:none"
             id="path3745"
             inkscape:connector-curvature="0" /></g><path
           d="m 252.356,249.828 h 1.104 v -8.863 h -1.104 z"
           style="fill:#67bf0d;fill-opacity:1;fill-rule:nonzero;stroke:none"
           id="path3747"
           inkscape:connector-curvature="0" /><g
           id="g3749"
           transform="translate(257.9004,240.9648)"><path
             d="M 0,0 V 8.863 H 0.479 L 4.365,3.154 8.215,8.863 H 8.707 V 0 H 7.592 V 6.128 L 4.485,1.547 H 4.209 L 1.104,6.128 V 0 Z"
             style="fill:#67bf0d;fill-opacity:1;fill-rule:nonzero;stroke:none"
             id="path3751"
             inkscape:connector-curvature="0" /></g><g
           id="g3753"
           transform="translate(271.0527,240.9648)"><path
             d="M 0,0 V 8.863 H 5.433 V 7.807 H 1.104 V 5.037 H 5.109 V 3.981 H 1.104 V 1.055 h 4.34 V 0 Z"
             style="fill:#67bf0d;fill-opacity:1;fill-rule:nonzero;stroke:none"
             id="path3755"
             inkscape:connector-curvature="0" /></g><g
           id="g3757"
           transform="translate(280.4717,240.9648)"><path
             d="M 0,0 V 8.863 H 1.104 V 1.079 H 5.9 V 0 Z"
             style="fill:#cbdb2e;fill-opacity:1;fill-rule:nonzero;stroke:none"
             id="path3759"
             inkscape:connector-curvature="0" /></g><path
           d="m 289.844,249.828 h 1.104 v -8.863 h -1.104 z"
           style="fill:#cbdb2e;fill-opacity:1;fill-rule:nonzero;stroke:none"
           id="path3761"
           inkscape:connector-curvature="0" /><g
           id="g3763"
           transform="translate(296.0947,242.1279)"><path
             d="m 0,0 c -0.852,0.863 -1.283,1.954 -1.283,3.263 0,1.33 0.444,2.422 1.344,3.285 0.899,0.876 1.978,1.307 3.25,1.307 0.743,0 1.451,-0.155 2.11,-0.456 C 6.081,7.101 6.621,6.692 7.017,6.2 L 6.213,5.493 C 5.457,6.345 4.498,6.776 3.322,6.776 2.339,6.776 1.512,6.44 0.852,5.78 0.192,5.121 -0.144,4.27 -0.144,3.25 c 0,-0.995 0.325,-1.835 0.984,-2.495 0.659,-0.659 1.475,-0.983 2.446,-0.983 1.092,0 2.159,0.492 2.915,1.295 V 2.914 H 3.154 V 3.946 H 7.256 V 0.587 C 6.165,-0.672 4.834,-1.296 3.238,-1.296 1.932,-1.296 0.852,-0.864 0,0"
             style="fill:#cbdb2e;fill-opacity:1;fill-rule:nonzero;stroke:none"
             id="path3765"
             inkscape:connector-curvature="0" /></g><g
           id="g3767"
           transform="translate(307.292,240.9648)"><path
             d="M 0,0 V 8.863 H 1.115 V 5.084 h 4.57 V 8.863 H 6.788 V 0 H 5.685 V 4.018 H 1.115 V 0 Z"
             style="fill:#cbdb2e;fill-opacity:1;fill-rule:nonzero;stroke:none"
             id="path3769"
             inkscape:connector-curvature="0" /></g><g
           id="g3771"
           transform="translate(320.1914,248.748)"><path
             d="M 0,0 H -2.639 V 1.08 H 3.754 V 0 H 1.115 V -7.783 H 0 Z"
             style="fill:#cbdb2e;fill-opacity:1;fill-rule:nonzero;stroke:none"
             id="path3773"
             inkscape:connector-curvature="0" /></g></g></g></g></svg>