<?xml version="1.0" encoding="UTF-8" standalone="no"?>
<!DOCTYPE svg PUBLIC "-//W3C//DTD SVG 1.1//EN" "http://www.w3.org/Graphics/SVG/1.1/DTD/svg11.dtd">
<svg viewBox="0 0 176 151" width="176" height="151" version="1.1" xmlns="http://www.w3.org/2000/svg" xmlns:xlink="http://www.w3.org/1999/xlink" xml:space="preserve" xmlns:serif="http://www.serif.com/" style="fill-rule:evenodd;clip-rule:evenodd;stroke-linejoin:round;stroke-miterlimit:1.41421;">
    <g transform="matrix(1,0,0,1,-512.008,-1314.96)">
        <g transform="matrix(1,0,0,1,0,1010.06)">
            <g transform="matrix(4.87523,0,0,4.87523,-2325.71,-1395.94)">
                <path d="M596.56,349.226L598.177,357.272C593.673,358.172 590.275,362.153 590.275,366.922C590.275,369.638 591.377,372.099 593.159,373.881L587.358,379.682C584.091,376.415 582.069,371.902 582.069,366.922C582.069,358.178 588.301,350.877 596.56,349.226Z" style="fill:rgb(130,130,130);"/>
            </g>
        </g>
        <g transform="matrix(1,0,0,1,0,1010.06)">
            <g transform="matrix(4.87523,0,0,4.87523,-2325.71,-1395.94)">
                <path d="M598.177,357.272L596.56,349.226C597.711,348.994 598.901,348.873 600.118,348.873C602.625,348.873 605.013,349.385 607.189,350.314L603.974,357.865C602.792,357.359 601.488,357.078 600.118,357.078C599.454,357.078 598.805,357.144 598.177,357.272Z" style="fill:rgb(180,180,180);"/>
            </g>
        </g>
        <g transform="matrix(1,0,0,1,0,1010.06)">
            <g transform="matrix(4.87523,0,0,4.87523,-2325.71,-1395.94)">
                <path d="M607.189,350.314C613.638,353.062 618.167,359.467 618.167,366.922C618.167,371.902 616.145,376.415 612.878,379.682L607.077,373.881C608.859,372.099 609.961,369.638 609.961,366.922C609.961,362.859 607.494,359.367 603.974,357.865L607.189,350.314Z" style="fill:rgb(233,65,59);"/>
            </g>
        </g>
        <g transform="matrix(1,0,0,1,0,1010.06)">
            <g transform="matrix(-0.0865891,0.323106,-0.323106,-0.0865891,844.304,-42.4494)">
                <circle cx="1445.41" cy="365.873" r="18" style="fill:rgb(37,37,37);"/>
            </g>
        </g>
        <g transform="matrix(1,0,0,1,0,1010.06)">
            <g transform="matrix(-0.258855,0.965916,-0.965916,-0.258855,1328.49,-908.548)">
                <path d="M1444.56,290.399C1444.59,289.948 1444.96,289.599 1445.41,289.599C1445.87,289.599 1446.24,289.948 1446.27,290.399C1447.93,314.693 1451.43,365.873 1451.43,365.873L1439.39,365.873C1439.39,365.873 1442.89,314.693 1444.56,290.399Z" style="fill:rgb(37,37,37);"/>
            </g>
        </g>
        <g transform="matrix(1,0,0,1,0,1010.06)">
            <g transform="matrix(1,0,0,1,-844.483,27.0194)">
                <circle cx="1445.41" cy="365.873" r="18" style="fill:rgb(233,65,59);"/>
            </g>
        </g>
    </g>
</svg>
