<svg version="1.0" xmlns="http://www.w3.org/2000/svg" width="179" height="179" viewBox="0 0 179 179">
    <g transform="translate(1,179) scale(0.1,-0.1)" fill="rgba(255,255,255,0.8)" stroke="none">
        <path d="M1205 1602 c-4 -9 -33 -89 -65 -177 -32 -88 -61 -167 -64 -175 -4
            -11 10 -23 48 -43 73 -38 159 -131 196 -210 18 -37 35 -97 42 -143 10 -70 9
            -90 -6 -155 -20 -82 -52 -150 -90 -197 -15 -16 -26 -34 -26 -39 0 -4 63 -71
            139 -147 158 -158 141 -153 216 -56 95 124 156 277 176 441 21 180 -23 381
            -119 544 -84 143 -260 300 -404 359 -33 14 -37 14 -43 -2z"/>
    </g>
    <g transform="translate(0,179) scale(0.1,-0.1)" fill="rgba(255,255,255,0.9)" stroke="none">
        <path d="M808 950 c-61 -33 -83 -74 -83 -155 0 -57 4 -76 23 -103 61 -85 188
            -96 267 -23 l30 28 160 -27 c88 -16 219 -38 292 -51 72 -13 135 -20 139 -16 4
            4 5 8 3 10 -2 2 -130 46 -284 98 -278 95 -280 96 -291 128 -15 47 -61 101
            -100 117 -46 19 -112 17 -156 -6z"/>
    </g>
    <g transform="translate(0,179) scale(0.1,-0.1)" fill="rgba(255,255,255,0.4)" stroke="none">
        <path d="M625 1636 c-368 -120 -615 -458 -615 -841 0 -196 71 -402 189 -544
            20 -25 41 -52 48 -60 10 -14 33 5 157 128 l144 144 -28 36 c-74 93 -105 199
            -98 333 5 74 11 99 42 163 58 124 166 217 293 255 36 11 42 17 38 34 -6 26
            -75 368 -75 373 0 7 -29 1 -95 -21z"/>
    </g>
    <g transform="translate(0,179) scale(0.1,-0.1)" fill="rgba(255,255,255,0.6)" stroke="none">
        <path d="M787 1670 c-32 -4 -60 -9 -62 -12 -3 -2 12 -90 33 -194 l38 -189 99
            -6 c55 -3 117 -11 138 -18 22 -7 42 -9 46 -5 18 21 151 358 144 365 -16 15
            -146 49 -225 59 -91 11 -124 11 -211 0z"/>
    </g>
</svg>